<?xml version="1.0" encoding="UTF-8" standalone="no"?>
<!-- Created with Inkscape (http://www.inkscape.org/) -->

<svg
   xmlns:dc="http://purl.org/dc/elements/1.1/"
   xmlns:cc="http://creativecommons.org/ns#"
   xmlns:rdf="http://www.w3.org/1999/02/22-rdf-syntax-ns#"
   xmlns:svg="http://www.w3.org/2000/svg"
   xmlns="http://www.w3.org/2000/svg"
   xmlns:sodipodi="http://sodipodi.sourceforge.net/DTD/sodipodi-0.dtd"
   xmlns:inkscape="http://www.inkscape.org/namespaces/inkscape"
   width="143.97226mm"
   height="36.791813mm"
   viewBox="0 0 143.97226 36.791813"
   version="1.1"
   id="svg8"
   inkscape:version="0.92.5 (2060ec1f9f, 2020-04-08)"
   sodipodi:docname="Logo.svg">
  <defs
     id="defs2" />
  <sodipodi:namedview
     id="base"
     pagecolor="#ffffff"
     bordercolor="#666666"
     borderopacity="1.0"
     inkscape:pageopacity="0.0"
     inkscape:pageshadow="2"
     inkscape:zoom="0.7"
     inkscape:cx="440.72889"
     inkscape:cy="-108.7603"
     inkscape:document-units="mm"
     inkscape:current-layer="layer1"
     showgrid="false"
     inkscape:window-width="1920"
     inkscape:window-height="1015"
     inkscape:window-x="1920"
     inkscape:window-y="0"
     inkscape:window-maximized="1"
     inkscape:pagecheckerboard="true"
     fit-margin-top="0"
     fit-margin-left="0"
     fit-margin-right="0"
     fit-margin-bottom="0" />
  <metadata
     id="metadata5">
    <rdf:RDF>
      <cc:Work
         rdf:about="">
        <dc:format>image/svg+xml</dc:format>
        <dc:type
           rdf:resource="http://purl.org/dc/dcmitype/StillImage" />
        <dc:title></dc:title>
      </cc:Work>
    </rdf:RDF>
  </metadata>
  <g
     inkscape:label="Ebene 1"
     inkscape:groupmode="layer"
     id="layer1"
     transform="translate(-25.694665,-8.9656162)">
    <g
       id="g919"
       transform="translate(20.78869,-89.882786)"
       style="fill:#ffffff;fill-opacity:1">
      <path
         inkscape:connector-curvature="0"
         d="m 7.8429352,99.111733 c -0.23954,2.044157 -0.3127428,4.103387 -0.3812038,6.160047 -0.067403,3.56014 -0.157563,7.11975 -0.2172062,10.68008 -0.034255,3.22604 -0.083031,6.45337 -0.011234,9.67913 0.028048,1.63836 0.1450943,3.27098 0.3140818,4.89911 0.079702,0.44262 0.1201984,0.91396 0.3091339,1.32454 0.3849682,0.35433 1.0809428,0.40951 1.5612171,0.49222 2.182308,0.28062 4.386838,0.20778 6.580045,0.18966 3.029007,-0.0377 6.056862,-0.11474 9.082363,0.0747 1.217248,0.0949 2.445049,0.15597 3.63524,0.46205 0.209545,0.0925 0.333804,0.24616 0.385797,0.47375 0.239091,1.06962 -2.256189,2.30943 -2.607926,1.23059 0.07236,0.19793 -0.07982,-0.0812 -0.105604,-0.13437 -0.128017,-0.23398 0.01871,-0.34986 0.171967,-0.51138 0.876882,-0.86137 1.776105,-1.69431 2.703581,-2.49445 1.582335,-1.38827 3.266784,-2.63725 4.905163,-3.94922 1.538822,-1.23397 2.976071,-2.59817 4.228246,-4.15233 0.725109,-0.99455 1.317561,-2.13949 1.360678,-3.42334 0.0081,-0.24177 -0.02389,-0.48317 -0.03584,-0.72476 -0.200888,-1.32972 -0.724445,-2.61015 -1.637922,-3.57267 -0.179152,-0.18878 -0.386741,-0.34489 -0.580112,-0.51734 -1.034502,-0.74664 -2.238375,-0.99522 -3.434995,-0.53036 -0.236697,0.0919 -0.455235,0.22934 -0.68285,0.34401 0.554167,-0.31526 1.059944,-0.75328 1.662498,-0.94578 0.267248,-0.0854 -0.423791,0.38675 -0.607427,0.60871 -0.205111,0.24793 -0.388104,0.51694 -0.554255,0.79547 -0.373454,0.62603 -0.732165,1.44308 -0.955408,2.13796 -0.137673,0.42853 -0.228914,0.87213 -0.343371,1.30819 -0.379854,1.88804 -0.452252,3.8277 0.0078,5.70912 0.309946,1.26756 0.495099,1.52531 1.0307,2.69769 1.206971,2.12163 3.040369,3.62627 5.162521,4.63056 0.412051,0.195 0.84143,0.34635 1.262147,0.51952 2.197872,0.79651 4.506637,0.97804 6.809917,0.83558 1.238419,-0.0654 2.448105,-0.33573 3.649268,-0.6397 0.453755,-0.13035 0.885338,-0.30126 1.31285,-0.50391 0.10301,-0.0529 0.21097,-0.0974 0.308009,-0.16209 0.200864,0.164 0.157999,0.22827 0.155466,0.397 0.03231,1.01063 -2.476833,2.31138 -2.518314,1.25752 -0.101492,-1.01429 2.489192,-2.34602 2.517465,-1.28451 0.0013,0.0251 0.0021,0.0625 0.0024,0.0846 -0.02468,-0.0816 -0.08652,-0.15998 -0.07409,-0.24455 0.0026,-0.0175 0.123615,0.0331 0.22997,0.0234 0.192106,-0.0175 0.3897,-0.0646 0.582626,-0.0874 0.641299,-0.0578 1.273484,-0.20414 1.901452,-0.34998 0.817761,-0.14092 1.603846,-0.41569 2.357334,-0.77397 0.878668,-0.45098 2.494447,-1.45082 -1.388287,0.87525 -0.09104,0.0546 0.179612,-0.11355 0.269023,-0.17102 0.250613,-0.16106 0.21998,-0.14225 0.45026,-0.29876 0.98027,-0.653 0.475117,-0.32018 2.725234,-1.66159 0.764601,-0.45582 -1.521245,0.92636 -2.283809,1.38596 -0.06746,0.0406 0.127548,-0.094 0.187301,-0.14638 0.04411,-0.13601 0.134949,0.17966 0.126172,0.17885 -0.05208,-0.005 -0.08885,-0.0602 -0.138395,-0.0779 -0.426588,-0.25369 -0.878041,-0.44807 -1.327703,-0.65192 -0.858309,-0.46122 -1.718797,-0.91861 -2.571763,-1.39082 -0.900015,-0.47088 -1.796151,-0.94445 -2.638248,-1.52397 -0.627343,-0.45995 -1.150295,-1.01915 -1.62755,-1.64253 -0.409657,-0.61515 -0.537356,-1.04983 -0.428935,-1.7931 0.20256,-0.97407 0.86573,-1.69928 1.474555,-2.42008 0.875334,-1.04081 1.816891,-2.01352 2.773196,-2.97026 0.755822,-0.75671 1.526616,-1.4994 2.344872,-2.18063 1.386856,-1.17616 2.967001,-2.03876 4.503738,-2.97313 0.600696,-0.34713 1.219295,-0.62927 1.89421,-0.76106 0.581758,-0.0844 1.169993,-0.082 1.755912,-0.0842 0.549352,-0.0185 1.104006,0.0481 1.649717,-0.03 0.209849,-0.0146 0.363805,-0.0959 0.526251,-0.22598 0,0 -2.185471,1.85249 -2.185471,1.85249 v 0 c -0.19027,0.0676 -0.380778,0.1192 -0.583465,0.1247 -0.552347,0.0244 -1.105506,-0.003 -1.658218,0.007 -0.5749,0.005 -1.154538,0.0105 -1.719987,0.13322 -0.647377,0.17567 -1.247757,0.47152 -1.830276,0.81584 4.236754,-2.6091 1.075862,-0.72164 0.20462,0.0645 -0.840419,0.66395 -1.618945,1.41179 -2.386195,2.16676 -0.955471,0.94741 -1.904902,1.90167 -2.771002,2.94244 -0.577154,0.68309 -1.244153,1.3529 -1.492258,2.25593 -0.145283,0.66475 -0.05991,1.00719 0.312846,1.57169 0.453866,0.60228 0.957347,1.13887 1.563111,1.57577 0.831876,0.57282 1.718873,1.04292 2.606505,1.5113 0.856827,0.46347 1.715903,0.92563 2.590919,1.34939 0.458701,0.19908 0.910069,0.41279 1.363525,0.62307 0.135261,0.0665 0.384032,0.19031 0.27169,0.3948 -0.56144,0.87255 -2.624095,1.72858 -2.690082,1.77413 -0.664485,0.45859 3.253766,-1.96163 2.058747,-1.26417 -1.313826,0.91242 -2.668408,1.77865 -4.098235,2.47191 -0.772459,0.33006 -1.568831,0.58069 -2.391198,0.73119 -0.641641,0.14399 -1.285629,0.28201 -1.939671,0.3467 -0.206433,0.0288 -0.40972,0.0584 -0.617244,0.0743 -0.03798,0.003 -0.07647,0.003 -0.113733,0.0115 -0.02777,0.006 -0.05498,0.0464 -0.07968,0.0317 -0.08305,-0.0496 -0.140247,-0.13658 -0.21037,-0.20486 -1.38e-4,-0.032 1.3e-4,-0.0648 0.0021,-0.097 0.03108,-1.03864 2.624463,-2.51617 2.51801,-1.42089 -0.04649,1.03424 -2.527697,2.53456 -2.521363,1.45127 -0.0029,-0.1992 -0.0351,-0.23351 0.155692,0.11482 -0.101769,0.0388 -0.199133,0.09 -0.299987,0.13146 -0.424495,0.18387 -0.864741,0.31874 -1.310206,0.43474 -1.184762,0.27493 -2.382706,0.48509 -3.597596,0.53463 -2.310947,0.083 -4.622056,-0.14295 -6.812518,-0.9777 -0.423415,-0.1817 -0.855376,-0.34261 -1.27024,-0.54508 -2.158873,-1.05359 -4.024043,-2.60448 -5.249582,-4.78078 -0.54949,-1.19693 -0.740484,-1.46592 -1.064522,-2.75862 -0.478848,-1.91028 -0.430049,-3.88254 -0.07594,-5.81013 0.10414,-0.44285 0.185177,-0.89249 0.31242,-1.32858 0.20169,-0.69121 0.547788,-1.5444 0.890305,-2.17882 0.193828,-0.35902 0.740447,-1.2376 1.096589,-1.49079 0.952286,-0.67702 1.974355,-1.23773 2.961532,-1.8566 0.239056,-0.10141 0.470217,-0.22662 0.717166,-0.30411 1.271752,-0.39905 2.519754,-0.0485 3.573203,0.75385 0.199499,0.18578 0.412787,0.35627 0.598498,0.55734 0.9383,1.01591 1.498333,2.33916 1.736051,3.72194 0.01992,0.25619 0.06111,0.51153 0.0598,0.76858 -0.0069,1.33506 -0.580382,2.54142 -1.319739,3.58821 -1.248746,1.5828 -2.690272,2.97 -4.237947,4.22394 -1.629032,1.30752 -3.308025,2.54665 -4.881774,3.92904 -0.897782,0.76923 -1.777916,1.56539 -2.588723,2.43669 -0.0764,0.0588 -0.226285,0.20626 -0.248476,0.19448 -0.03061,-0.0162 -0.04563,-0.0541 -0.071,-0.0785 -0.0086,-0.008 0.0235,0.0513 0.01135,0.0346 0.04027,0.0991 0.08792,0.0859 0.147476,0.2154 -0.271692,0.83038 -3.272939,0.7553 -2.444657,1.45851 0.126423,0.0789 -0.09447,-0.15408 -0.138494,-0.0995 -1.125527,-0.33441 -2.297376,-0.41695 -3.45696,-0.5274 -3.006238,-0.22088 -6.017026,-0.15291 -9.028088,-0.0902 -2.248761,0.0408 -4.5094013,0.141 -6.7499459,-0.12045 C 6.575532,133.90654 5.8192867,133.86036 5.4092976,133.3164 5.2139857,132.86246 5.174064,132.35901 5.1090347,131.86973 5.0048915,130.20981 4.8985634,128.55002 4.909962,126.8851 c -0.022897,-3.24377 0.058983,-6.48765 0.089411,-9.73117 0.058582,-3.55041 0.1444382,-7.1003 0.1588953,-10.65136 0.031241,-2.02747 0.091914,-4.0534 0.1829456,-6.07856 0,0 2.5019164,-1.312272 2.5019164,-1.312272 z"
         id="path889"
         style="opacity:1;fill:#ffffff;fill-opacity:1;stroke-width:1.02726483;stroke-miterlimit:4;stroke-dasharray:none" />
      <path
         inkscape:connector-curvature="0"
         d="m 80.642642,102.79992 c 0.236447,-0.42392 0.511328,-0.86439 0.538747,-1.35507 -0.06188,-0.50426 -0.496668,-0.72122 -0.934532,-0.90533 -0.931395,-0.29171 -1.898177,-0.086 -2.818138,0.14029 -0.214419,0.0756 -0.433166,0.14076 -0.643253,0.22699 -0.22316,0.0916 -0.440486,0.19643 -0.654857,0.30583 -0.228266,0.1165 -0.903504,0.48237 -0.672266,0.37147 0.547256,-0.26247 1.035214,-0.65847 1.621007,-0.82649 0.28893,-0.0829 -0.472393,0.36234 -0.693185,0.56036 -0.238609,0.21398 -0.455551,0.44942 -0.683329,0.67414 -1.880539,1.96238 -2.910313,4.39314 -3.860374,6.86116 -1.186333,3.3551 -1.810422,6.85246 -2.354617,10.34749 -0.475189,3.19391 -0.752647,6.41125 -1.03792,9.62496 -0.134366,1.75705 -0.310674,3.51077 -0.434018,5.26863 0,0 -2.463106,1.18227 -2.463106,1.18227 v 0 c 0.230589,-1.7789 0.438134,-3.56104 0.600924,-5.34697 0.317796,-3.22521 0.61059,-6.45522 1.084606,-9.66342 0.547355,-3.50105 1.169438,-7.00346 2.307125,-10.37908 0.900562,-2.456 1.890514,-4.92538 3.703441,-6.90692 0.331134,-0.34711 0.909725,-0.99938 1.332984,-1.27067 1.561553,-1.00094 3.200461,-2.063611 5.00973,-2.622943 0.980511,-0.215838 2.003139,-0.393663 2.971443,-0.02616 0.528259,0.253075 0.993928,0.560546 1.108217,1.157603 0.03178,0.53941 -0.235286,1.00337 -0.469376,1.48102 0,0 -2.559253,1.10084 -2.559253,1.10084 z"
         id="path891"
         style="opacity:1;fill:#ffffff;fill-opacity:1;stroke-width:0.98232222;stroke-miterlimit:4;stroke-dasharray:none" />
      <path
         inkscape:connector-curvature="0"
         d="m 63.092536,112.13863 c 0.446722,0.009 0.893529,0.003 1.340289,0.002 0.293857,-0.002 0.587727,-0.004 0.881591,-0.003 0.372587,0.11389 0.765514,0.11426 1.142265,0.20336 0.422158,0.0846 0.823251,0.22821 1.249714,0.29335 0.699006,0.0784 1.403996,0.079 2.106491,0.0872 0.969372,0.033 1.928088,-0.12454 2.887829,-0.23231 0.89898,-0.14409 1.803498,-0.24506 2.696639,-0.42384 0.895776,-0.1688 1.792237,-0.33775 2.683068,-0.53171 0.85992,-0.16367 1.716111,-0.34594 2.574753,-0.51601 0.698587,-0.1488 1.398791,-0.1736 2.107612,-0.12269 0.734923,0.0897 1.450153,0.27723 2.166777,0.45558 0.593187,0.18249 1.18955,0.35914 1.75982,0.60564 0.624062,0.2898 1.211929,0.64922 1.776309,1.04109 0.71074,0.51233 1.372336,1.07437 1.944262,1.73874 0.733462,0.88687 1.209934,1.93069 1.585388,3.00875 0.430776,1.27826 0.575697,2.6173 0.616093,3.95808 0.05339,1.28381 -0.174678,2.54166 -0.484552,3.78028 -0.341308,1.25623 -0.850498,2.32576 -1.554621,3.41426 -0.637555,0.97031 -1.425757,1.81707 -2.302486,2.57242 -1.539102,1.19603 -3.238225,2.20461 -5.053245,2.92006 -1.011036,0.42264 -2.080046,0.59967 -3.168298,0.62774 -0.883536,-0.0104 -1.55538,-0.26475 -2.283598,-0.73894 -0.675142,-0.509 -1.085789,-1.25357 -1.419944,-2.01306 -0.377788,-0.90796 -0.356164,-1.6248 -0.118325,-2.5607 0.349311,-1.12347 1.116275,-2.0174 1.892285,-2.87222 0.806235,-0.88075 1.707483,-1.66151 2.640679,-2.40304 1.452062,-1.06439 2.994771,-2.09146 4.71968,-2.63755 0.679709,-0.19988 1.36199,-0.1676 2.038127,0.0151 0.64048,0.19576 1.191654,0.57614 1.754196,0.92499 0.384582,0.23129 0.706146,0.54915 1.011444,0.87452 0.165735,0.14887 0.289906,0.33465 0.437567,0.49772 0.158481,0.21154 0.281581,0.44509 0.428051,0.66446 0.23908,0.35861 0.432332,0.74012 0.614162,1.1297 0.212664,0.47878 0.389779,0.97178 0.578863,1.45994 0.167219,0.49815 0.349718,0.99153 0.565938,1.4706 0.172001,0.40786 0.393915,0.79405 0.638445,1.16244 0.220607,0.31923 0.482455,0.60552 0.781953,0.85141 0.122541,0.0845 0.24136,0.18642 0.382463,0.23983 0.08216,0.0396 0.101007,0.16472 0.105709,0.25725 0.03999,1.18162 2.93316,-1.41969 -2.477405,1.55869 -0.02735,0.0151 -0.07996,0.0123 -0.110752,0.007 3.474812,-2.46103 2.894338,-1.93813 0.02281,-0.3549 -0.02088,0.0115 0.03675,-0.0334 0.0599,-0.039 0.0048,0.007 0.01,0.0291 0.01455,0.0217 0.01281,-0.0208 -0.02291,-0.2267 -0.0042,-0.28849 0.02768,-0.0679 0.06707,-0.1298 0.102093,-0.19388 0.09306,-0.9402 1.906135,-1.91056 2.605648,-1.21587 0.032,0.032 0.06552,0.0624 0.100547,0.0909 -0.105849,-0.19974 0.03406,-0.002 0.08753,0.0604 0.140816,0.0535 0.287014,0.14806 0.403966,0.24446 0.188132,0.13953 0.376621,0.28251 0.562641,0.42763 0.192884,0.12312 0.38707,0.22739 0.603774,0.30206 0.199718,0.0421 0.257223,-0.0387 0.384874,0.12734 0.07511,0.0685 0.121819,0.0846 0.209671,0.0861 -0.02341,-0.15291 0.123423,-0.10852 0.221343,-0.15481 0.06208,-0.0293 0.114342,-0.0761 0.172656,-0.1124 1.577295,-0.83379 -3.015707,1.91436 -1.749943,1.00567 0.229637,-0.12297 0.438682,-0.27063 0.618929,-0.45852 0.184798,-0.16414 0.347721,-0.34863 0.503203,-0.54041 0.111929,-0.13799 0.229624,-0.27114 0.346059,-0.4053 0.648735,-0.74665 1.67576,-1.6132 2.668557,-1.43142 0.89654,0.99785 -1.562524,1.01495 -2.388845,1.33764 0.01691,-0.0246 0.02915,-0.0531 0.05069,-0.0737 0.01381,-0.0132 0.202588,-0.13167 0.202999,-0.13195 0.161252,-0.10931 0.30839,-0.23466 0.456445,-0.36082 0.321443,-0.28708 0.639784,-0.57832 0.919308,-0.90691 0.339289,-0.41319 0.657173,-0.84376 0.973963,-1.27434 0.351,-0.44188 0.68877,-0.89277 1.02913,-1.34271 0.33114,-0.41081 0.57226,-0.87877 0.81243,-1.34538 0.29131,-0.60314 0.48539,-1.2461 0.68616,-1.88327 0.22528,-0.63918 0.44942,-1.27872 0.67463,-1.91793 0.33788,-0.96382 0.67973,-1.92568 1.04171,-2.88071 0.43215,-1.17193 0.86619,-2.34434 1.23231,-3.53884 0.38701,-1.30294 0.67637,-2.63004 0.9117,-3.96779 0.18813,-1.19444 0.34133,-2.39274 0.42697,-3.59892 0.0216,-0.76115 -0.0492,-1.52066 -0.0988,-2.27946 -0.037,-0.42612 -0.0121,-0.85553 -0.0931,-1.27654 -0.0704,-0.25655 -0.11433,-0.51835 -0.13538,-0.78323 -0.0103,-0.14032 -0.0171,-0.28085 -0.0256,-0.42127 8e-4,-0.0263 -0.007,-0.0447 -0.0176,-0.068 0.84493,-0.38613 1.68987,-0.77226 2.5348,-1.15839 0.009,0.34438 -0.0153,0.68512 -0.0592,1.02647 -0.098,0.80584 -0.12553,1.61748 -0.1964,2.42594 -0.0863,0.91457 -0.11795,1.83248 -0.13893,2.75043 -0.01,0.87385 -1.7e-4,1.74663 -0.0585,2.61891 -0.0375,0.65005 -0.15393,1.29215 -0.29505,1.9267 -0.12681,0.57884 -0.24912,1.15863 -0.37874,1.7369 -0.0674,0.42899 -0.18382,0.84563 -0.28906,1.26593 -0.0358,0.14927 -0.0732,0.29769 -0.0871,0.4508 -0.0697,0.97275 -1.26238,0.69717 -2.54275,1.34583 -0.20099,-0.32716 -0.3885,-0.66394 -0.58042,-0.9971 -0.27886,-0.4643 -0.60423,-0.90284 -0.99526,-1.2783 -0.36739,-0.3383 -0.8135,-0.46931 -1.29557,-0.53236 -0.4473,-0.0529 -0.88799,-0.0566 -1.3115,0.10744 -0.92395,0.61132 0.18255,-0.12679 1.98598,-1.11453 0.0822,-0.045 -0.15304,0.10877 -0.22341,0.17066 -0.0777,0.0683 -0.15174,0.14127 -0.21983,0.21918 -0.21155,0.24209 -0.25904,0.34943 -0.43028,0.63093 -0.52393,0.95762 -0.89195,1.98384 -1.19139,3.03023 -0.32737,1.20627 -0.53487,2.4415 -0.73133,3.67466 -0.22327,1.19894 -0.339449,2.41122 -0.406021,3.62762 -0.05389,1.17809 0.09792,2.33702 0.369231,3.47983 0.19924,0.83984 0.56911,1.57791 1.11585,2.23847 0.36679,0.36036 0.66125,0.6353 1.18499,0.42476 0.8992,-0.43003 0.9731,-0.47171 -1.91022,1.09714 -0.10083,0.0549 0.19253,-0.12558 0.28279,-0.19649 0.32079,-0.25202 0.57072,-0.55923 0.82622,-0.87384 0.6043,-0.78073 1.02616,-1.67672 1.42791,-2.57258 0.38831,-0.92466 0.6528,-1.89168 0.92564,-2.85441 0.26621,-0.93648 0.4458,-1.89278 0.62281,-2.84903 0.12845,-0.6948 0.18271,-1.39928 0.20645,-2.10446 0.0405,-0.44628 -0.0229,-0.88211 -0.10114,-1.31932 -0.23138,-1.23269 -0.18859,-0.31555 2.40759,-1.55103 -0.13216,0.17736 -0.0414,0.52168 -0.0317,0.73461 0.0747,0.48082 0.14123,0.96083 0.17367,1.44669 0.0385,0.64036 0.12363,1.27624 0.16795,1.91644 0.0203,0.8095 0.0672,1.61605 0.12975,2.42335 0.0654,0.99802 0.0738,1.99747 0.14479,2.99518 0.0815,0.94828 0.28167,1.88031 0.57431,2.78459 0.25894,0.76223 0.69872,1.44558 1.2022,2.0677 0.47799,0.60033 1.12696,0.9958 1.83904,1.25566 0.79044,0.245 1.61166,0.22573 2.42317,0.12603 0.7608,-0.10388 1.51343,-0.26247 2.25644,-0.45472 1.05214,-0.37315 3.07239,-1.65834 -1.22701,0.81671 0.28214,-0.1707 0.53664,-0.38147 0.80341,-0.57469 0.4437,-0.32036 0.88134,-0.64894 1.32677,-0.96693 0.55253,-0.38498 1.08409,-0.8011 1.58692,-1.24903 0.41951,-0.33512 0.77506,-0.72966 1.10846,-1.14762 0.27735,-0.35052 0.50073,-0.73768 0.71354,-1.12936 0.15986,-0.30925 0.33055,-0.61312 0.51231,-0.91006 0.14693,-0.26865 0.25843,-0.55511 0.38049,-0.83567 0.22766,-0.52055 0.43722,-1.04748 0.62146,-1.58502 0.2467,-0.75603 0.33821,-1.54861 0.34586,-2.34056 -0.004,-0.63504 -0.0809,-1.28355 -0.49829,-1.78493 -0.37838,-0.3731 -0.64189,-0.32317 -1.0949,-0.12809 -1.05787,0.64318 0.65257,-0.40037 1.82088,-1.02023 0.11428,-0.0606 -0.20944,0.15243 -0.30739,0.23695 -0.35481,0.30616 -0.63335,0.66065 -0.91124,1.03478 -0.59981,0.86643 -0.95017,1.84841 -1.18612,2.86656 -0.23487,1.10343 -0.20615,2.22651 -0.0655,3.33852 0.14472,0.97785 0.4813,1.89618 0.99884,2.73482 0.4906,0.72078 1.08987,1.3534 1.73698,1.93407 0.56224,0.48789 1.21899,0.80615 1.93954,0.97237 0.83123,0.19081 1.56425,-0.10527 2.28361,-0.49579 -0.63138,0.35476 -1.24797,0.73728 -1.89417,1.06429 -0.17838,0.0903 0.32756,-0.22955 0.48588,-0.35162 0.78812,-0.60766 1.46165,-1.32257 2.12742,-2.05809 1.14825,-1.30195 2.15348,-2.71927 3.1912,-4.10845 0.72663,-1.00661 1.56507,-1.91922 2.41411,-2.82146 0.59344,-0.58232 1.10101,-1.23696 1.55434,-1.93171 0.20421,-0.30457 0.40365,-0.61218 0.58148,-0.933 0.50925,-0.79332 0.61079,-0.37457 2.56866,-1.48682 0.17518,0.0101 0.22083,0.28468 0.25016,0.42254 -0.83157,0.47924 -1.66313,0.95848 -2.4947,1.43772 -0.0742,0.0238 -0.11691,0.031 -0.16755,-0.0288 2.80307,-1.69561 2.64668,-2.06438 2.14591,-0.4175 -0.32684,1.22021 -0.5276,2.46908 -0.76411,3.70879 -0.30836,1.64774 -0.58078,3.30182 -0.87973,4.95143 -0.18004,0.91643 -0.36433,1.83245 -0.48488,2.75896 -0.13647,1.22945 -0.33981,0.74816 -2.62714,1.53574 -0.0791,0.0272 -0.0209,-0.16724 -0.0138,-0.25061 0.009,-0.10855 0.0414,-0.21391 0.062,-0.32086 0.43128,-1.66536 1.2022,-3.20974 2.00791,-4.71976 0.89976,-1.54987 1.92734,-3.04705 3.18488,-4.33224 0.20842,-0.21301 0.4342,-0.40832 0.6513,-0.61248 1.26641,-1.06136 2.69203,-1.80044 4.15738,-2.59183 0.28836,-0.15574 0.84489,-0.31396 1.17297,-0.35386 0.19215,-0.0234 0.38703,-0.009 0.58055,-0.0134 0.1931,0.0395 0.39217,0.0565 0.57928,0.11844 0.96976,0.32085 1.69657,1.13957 2.18789,2.00249 0.16145,0.28357 0.2847,0.58724 0.42706,0.88086 0.68231,1.77296 0.98941,3.69374 0.76171,5.58948 -0.0481,0.40021 -0.14401,0.7932 -0.21602,1.1898 -0.43721,1.51799 -0.19499,0.7749 -0.72361,2.23024 0,0 -2.38303,1.10915 -2.38303,1.10915 v 0 c 0.54659,-1.43445 0.29556,-0.70331 0.7508,-2.19421 0.0768,-0.38694 0.17835,-0.76978 0.23043,-1.16082 0.24597,-1.84688 -0.0572,-3.72355 -0.73425,-5.44748 -0.1411,-0.27975 -0.26346,-0.56977 -0.42331,-0.83925 -0.4753,-0.80128 -1.18015,-1.55454 -2.1143,-1.79093 -0.17733,-0.0449 -0.36299,-0.0457 -0.54449,-0.0685 -0.53298,0.0504 -0.58508,0.0228 -1.10094,0.20636 -0.19306,0.0687 -0.73444,0.35784 -0.56453,0.2433 0.55367,-0.37325 1.13988,-0.69637 1.72196,-1.02357 0.21735,-0.12218 -0.42253,0.26523 -0.62694,0.40802 -0.22612,0.15796 -0.44268,0.3292 -0.66402,0.4938 -0.22385,0.1987 -0.45734,0.38705 -0.67155,0.59612 -1.28503,1.25418 -2.32715,2.7455 -3.24007,4.28296 -0.78245,1.46119 -1.53085,2.96019 -1.90497,4.58585 -0.002,0.007 -0.0818,0.39342 -0.0978,0.40281 -0.81119,0.4763 -1.65625,0.89253 -2.47822,1.34998 -0.019,0.0106 0.0484,0.007 0.0649,-0.007 0.0664,-0.0573 0.0715,-0.20527 0.0825,-0.26987 0.1661,-0.94026 0.36254,-1.87422 0.56349,-2.8076 0.32181,-1.64669 0.59992,-3.29983 0.88453,-4.95313 0.22349,-1.23126 0.41289,-2.46905 0.6837,-3.69108 0.34381,-1.59239 0.51425,-1.07213 2.68072,-2.40044 -0.0389,-0.0623 0.006,-0.0624 0.0632,-0.0886 -0.78025,0.45978 -1.56049,0.91956 -2.34073,1.37934 0.0159,0.0192 0.1987,0.15979 0.0705,0.13779 0.47169,-0.29005 2.75477,-2.30919 2.30147,-1.30245 -0.18784,0.33408 -0.3931,0.65953 -0.62017,0.96828 -0.44866,0.71668 -0.95126,1.40155 -1.56085,1.99128 -0.86178,0.90527 -1.73159,1.80429 -2.474,2.81378 -1.05199,1.38393 -2.05308,2.80841 -3.18487,4.12967 -1.72407,1.96744 -2.81746,2.83375 -5.34023,4.10504 -0.80756,0.37954 -1.53329,0.58488 -2.42177,0.35073 -0.74502,-0.21199 -1.42213,-0.57265 -2.00281,-1.09152 -0.65719,-0.60679 -1.27103,-1.26017 -1.77195,-2.00449 -0.52952,-0.87707 -0.88537,-1.82764 -1.03556,-2.84532 -0.15436,-1.13686 -0.2,-2.2874 0.0183,-3.42084 0.21722,-1.0461 0.55117,-2.0551 1.13135,-2.96177 1.01983,-1.518 2.29244,-2.35252 4.1217,-3.05409 0.53826,-0.12106 0.91818,-0.0142 1.28784,0.40721 0.42475,0.57242 0.55896,1.25462 0.56033,1.9605 0.01,0.81301 -0.0736,1.62983 -0.29628,2.4141 -0.16796,0.53947 -0.35789,1.07082 -0.59195,1.5854 -0.0975,0.29773 -0.23818,0.58016 -0.35606,0.86972 -0.15917,0.3129 -0.3781,0.59359 -0.52311,0.91387 -0.224,0.39742 -0.42784,0.80637 -0.70054,1.17454 -0.33745,0.42483 -0.66031,0.86728 -1.10209,1.19289 -0.49478,0.46212 -1.02511,0.88551 -1.5736,1.28219 -0.44462,0.30536 -0.86849,0.63805 -1.30923,0.94853 -0.26004,0.20668 -0.53627,0.38731 -0.78977,0.60274 -1.15108,0.66552 -2.28732,1.51826 -3.59663,1.87956 -0.74524,0.17772 -1.50107,0.31976 -2.26196,0.40975 -0.84534,0.0695 -1.69856,0.0671 -2.5068,-0.22763 -0.74016,-0.30896 -1.41397,-0.74074 -1.91607,-1.37844 -0.51507,-0.65484 -0.97396,-1.36474 -1.24325,-2.1587 -0.30052,-0.92614 -0.49903,-1.88044 -0.59238,-2.85053 -0.0701,-0.99488 -0.0947,-1.99078 -0.1582,-2.98601 -0.0632,-0.806 -0.12823,-1.61026 -0.14374,-2.41902 -0.0434,-0.63917 -0.13412,-1.27274 -0.17898,-1.91102 -0.0332,-0.48487 -0.0899,-0.96627 -0.19043,-1.44232 -0.0188,-0.29859 -0.0552,-0.59602 -0.0646,-0.89486 2.73085,-1.40433 2.44994,-2.22383 2.65339,-0.88812 0.0734,0.45806 0.15532,0.91421 0.10634,1.38054 -0.0268,0.72129 -0.0786,1.44169 -0.21078,2.15254 -0.18061,0.96478 -0.36857,1.92845 -0.62169,2.8774 -0.28062,0.9704 -0.52933,1.95084 -0.91114,2.88884 -0.39361,0.90986 -0.80975,1.81922 -1.38853,2.62895 -0.98917,1.33179 -2.255,2.28845 -3.96018,2.74515 -0.590738,0.0194 -0.953344,-0.2514 -1.334442,-0.68721 -0.556998,-0.70404 -0.94004,-1.4837 -1.142846,-2.36414 -0.280699,-1.16617 -0.439968,-2.34918 -0.398513,-3.55224 0.05605,-1.22583 0.171678,-2.44749 0.397608,-3.65496 0.187301,-1.24203 0.404183,-2.4835 0.713692,-3.70127 0.283242,-1.05893 0.639784,-2.09417 1.131602,-3.07617 0.141158,-0.27055 0.214238,-0.43563 0.389489,-0.68049 0.75303,-1.05214 2.06914,-1.58406 3.23635,-2.05908 0.45681,-0.0904 0.91927,-0.0783 1.37873,-0.003 0.52305,0.1043 0.99582,0.30369 1.38745,0.67835 0.39411,0.40512 0.73855,0.85549 1.03181,1.33901 0.19378,0.31962 0.38153,0.64391 0.58687,0.95551 -0.61059,0.37143 -2.44456,2.41697 -2.40518,1.35665 0.0107,-0.17103 0.0291,-0.34055 0.0835,-0.50419 0.11102,-0.42281 0.25411,-0.83499 0.31518,-1.26959 0.13187,-0.57737 0.25226,-1.15688 0.37865,-1.73531 0.13788,-0.62777 0.28641,-1.2572 0.32971,-1.90053 0.0771,-0.86864 0.0666,-1.73745 0.0741,-2.60899 0.016,-0.92378 0.0499,-1.84758 0.13412,-2.76799 0.0666,-0.80558 0.0965,-1.61168 0.15722,-2.4176 0.0374,-0.32788 0.07,-0.65146 0.0479,-0.98207 6.38442,-3.38184 2.66073,-1.78199 2.51482,-1.33899 -0.008,0.13747 -0.004,0.27542 5.3e-4,0.41292 0.0146,0.25471 0.0455,0.50768 0.11248,0.75462 0.09,0.43711 0.0724,0.87809 0.0902,1.32284 0.0347,0.77566 0.098,1.55105 0.0825,2.328 -0.0965,1.21949 -0.26076,2.4305 -0.44846,3.63913 -0.23134,1.34314 -0.50534,2.67827 -0.88105,3.98944 -0.35697,1.20168 -0.80087,2.3752 -1.22455,3.55458 -0.34869,0.94769 -0.68753,1.89792 -1.00585,2.85636 -0.21618,0.6398 -0.43398,1.27853 -0.67444,1.9095 -0.20322,0.64576 -0.39494,1.296 -0.65826,1.92072 -0.23875,0.47727 -0.46405,0.96177 -0.78402,1.39207 -0.35622,0.43971 -0.66718,0.9109 -1.03977,1.3385 -0.31631,0.42834 -0.62603,0.86199 -0.954,1.28121 -0.27194,0.34508 -0.57155,0.65833 -0.90279,0.94843 -0.20299,0.18696 -0.42513,0.45657 -0.69654,0.52899 -0.889755,0.36902 -1.779504,0.73805 -2.669253,1.10708 0.03051,0.0544 0.152411,0.21864 0.166187,0.31269 -1.091596,0.25347 2.984026,-2.04133 2.228076,-1.32675 -0.125284,0.12828 -0.245738,0.26115 -0.365004,0.39501 -0.162034,0.19669 -0.312981,0.39861 -0.488765,0.57959 -0.207452,0.16257 -0.349454,0.39679 -0.598122,0.51147 -0.359365,0.17129 0.132358,-0.0728 -0.218742,0.13454 -0.9735,0.5749 -1.862264,1.15403 -2.850631,1.63398 -0.05423,0.0238 -0.386795,0.16672 -0.435057,0.15637 -0.03352,-0.007 -0.06015,-0.0329 -0.09023,-0.0494 -0.108749,-0.0462 -0.197544,-0.12746 -0.288375,-0.20172 0.0081,0.0172 0.03048,0.0337 0.02429,0.0517 -0.005,0.0147 -0.326856,-0.0866 -0.345009,-0.0983 -0.226214,-0.10263 -0.440359,-0.22848 -0.643739,-0.37111 -0.182878,-0.14319 -0.368448,-0.28407 -0.558716,-0.41707 -0.148023,-0.0867 -0.301159,-0.16904 -0.435528,-0.27507 -0.03868,-0.0226 -0.02315,-0.0191 0.0031,0.0476 -0.03892,-0.0143 -0.06643,-0.0634 -0.09253,-0.0983 -0.03319,-0.0366 -0.06734,-0.0723 -0.100843,-0.10858 -0.701159,-0.75759 3.231433,-1.19799 2.411024,-1.36576 -0.05001,0.043 -0.09062,0.095 -0.132101,0.14622 -0.07003,0.0726 -0.121251,-0.0105 -0.05286,0.16081 0.0068,0.0336 0.02716,0.14652 -0.01087,0.16996 -0.817288,0.50386 -1.646735,0.98783 -2.476685,1.47053 -0.01482,0.009 -0.0343,-9e-5 -0.05145,-1.3e-4 0.73062,-0.55903 1.46124,-1.11806 2.191858,-1.67709 0.98244,-0.48971 -2.970289,0.64137 -2.206916,1.42858 0.0047,0.005 0.0016,-0.0133 0.0024,-0.02 0.01622,-0.15147 0.110877,0.0861 0.0475,0.008 -0.13494,-0.0956 -0.267986,-0.194 -0.392393,-0.3032 -0.304541,-0.27701 -0.582036,-0.57863 -0.812067,-0.92156 -0.253053,-0.38069 -0.484323,-0.77994 -0.659313,-1.20285 -0.217985,-0.48378 -0.39601,-0.98425 -0.567899,-1.48598 -0.189174,-0.48108 -0.363336,-0.96794 -0.574082,-1.4404 -0.179216,-0.37435 -0.367194,-0.74233 -0.602684,-1.08551 -0.145005,-0.20823 -0.270841,-0.42853 -0.423278,-0.63149 -0.137498,-0.16728 -0.274505,-0.33405 -0.423084,-0.49231 -0.2877,-0.30907 -0.58161,-0.61519 -0.951995,-0.82758 -0.534371,-0.34451 -1.07582,-0.69234 -1.699765,-0.85129 -0.653317,-0.13445 -1.302105,-0.11755 -1.937909,0.10407 -0.329483,0.11882 -0.405016,0.13692 -0.729419,0.29336 -0.130498,0.0629 -0.509418,0.27592 -0.385167,0.2014 3.762372,-2.25629 1.893667,-1.14643 1.119724,-0.57171 -0.944988,0.72636 -1.855891,1.49614 -2.671426,2.36814 -0.767295,0.81417 -1.536155,1.66757 -1.916922,2.7395 -0.261885,0.89026 -0.309603,1.50959 0.03365,2.39319 0.313108,0.71121 0.700384,1.40694 1.347846,1.866 0.665477,0.41052 1.380601,0.64085 2.172493,0.61386 1.070295,-0.0508 2.113219,-0.26904 3.100636,-0.69704 0.904767,-0.3808 2.750405,-1.42082 -0.906208,0.66912 -0.148995,0.0851 0.289224,-0.18483 0.432536,-0.27924 0.466378,-0.30724 0.38268,-0.25496 0.837692,-0.591 0.891841,-0.72974 1.700789,-1.55009 2.35091,-2.50703 0.219212,-0.32663 0.490839,-0.71455 0.67922,-1.06152 0.389392,-0.7172 0.650454,-1.4969 0.907354,-2.26807 0.319571,-1.21693 0.571108,-2.45337 0.530783,-3.71969 -0.024,-1.31292 -0.169344,-2.62596 -0.588939,-3.87728 -0.360693,-1.04587 -0.830127,-2.05644 -1.55458,-2.90485 -0.568238,-0.63908 -1.220978,-1.18145 -1.921899,-1.67095 -0.556668,-0.37619 -1.140894,-0.71542 -1.756934,-0.98541 -0.564105,-0.2255 -1.145397,-0.4068 -1.728126,-0.57763 -0.703458,-0.17949 -1.411587,-0.35214 -2.137323,-0.41219 -0.693401,-0.0301 -1.380675,0.0325 -2.060694,0.17581 -0.853138,0.17222 -1.708367,0.33347 -2.560772,0.50944 -0.895646,0.18489 -1.792325,0.36572 -2.691868,0.53065 -0.896575,0.15917 -1.799815,0.2744 -2.701206,0.40242 -0.967102,0.11365 -1.93626,0.24079 -2.91271,0.20852 -0.721262,-0.004 -1.446832,0.002 -2.162241,-0.10268 -0.424257,-0.0813 -0.833673,-0.21917 -1.259473,-0.29464 -0.372178,-0.0579 -0.746802,-0.11774 -1.12119,-0.15132 -0.290965,5.3e-4 -0.581935,-8e-4 -0.872892,-0.003 -0.448598,-10e-4 -0.897242,-0.007 -1.345806,0.002 0,0 2.270371,-1.64953 2.270371,-1.64953 z"
         id="path895"
         style="opacity:1;fill:#ffffff;fill-opacity:1;stroke-width:1;stroke-miterlimit:4;stroke-dasharray:none" />
    </g>
  </g>
</svg>
